<svg width="115" height="17" viewBox="0 0 115 17" fill="none" xmlns="http://www.w3.org/2000/svg">
<path d="M2.57904 3.59788C2.90797 3.7328 3.16213 3.95018 3.34155 4.25C3.53591 4.53483 3.63309 4.87963 3.63309 5.28439C3.63309 5.82407 3.46115 6.26631 3.11728 6.61111C2.77341 6.95591 2.3473 7.12831 1.83897 7.12831C1.30074 7.12831 0.859682 6.95591 0.515809 6.61111C0.171936 6.26631 0 5.82407 0 5.28439C0 5.01455 0.029902 4.7522 0.0897059 4.49735C0.164461 4.2425 0.29902 3.86023 0.493383 3.35053L1.68199 0.157407H3.4761L2.57904 3.59788Z" fill="#51B27F"/>
<path d="M18.4601 14.3915V16.8426H6.68624V1.10185H18.1462V3.55291H9.60169V7.6455H17.1818V10.0516H9.60169V14.3915H18.4601Z" fill="#51B27F"/>
<path d="M28.8471 16.8426L25.7747 12.6825L22.6798 16.8426H19.585L24.2497 10.7487L19.7868 4.83466H22.9041L25.842 8.76984L28.7798 4.83466H31.8074L27.3221 10.7037L32.0092 16.8426H28.8471Z" fill="#51B27F"/>
<path d="M39.1782 17C37.9372 17 36.8234 16.7377 35.8366 16.213C34.8499 15.6883 34.0799 14.9612 33.5267 14.0317C32.9735 13.0873 32.6969 12.0229 32.6969 10.8386C32.6969 9.65432 32.9735 8.59744 33.5267 7.66799C34.0799 6.73854 34.8424 6.01146 35.8142 5.48677C36.801 4.96208 37.9223 4.69973 39.1782 4.69973C40.3593 4.69973 41.3909 4.93959 42.273 5.41931C43.1701 5.89903 43.8429 6.58862 44.2914 7.48809L42.1385 8.74735C41.7946 8.19268 41.361 7.78042 40.8377 7.51058C40.3294 7.22575 39.7687 7.08333 39.1558 7.08333C38.1092 7.08333 37.242 7.42813 36.5543 8.11772C35.8665 8.79233 35.5227 9.69929 35.5227 10.8386C35.5227 11.978 35.8591 12.8924 36.5319 13.582C37.2196 14.2566 38.0942 14.5939 39.1558 14.5939C39.7687 14.5939 40.3294 14.459 40.8377 14.1892C41.361 13.9043 41.7946 13.4846 42.1385 12.9299L44.2914 14.1892C43.8279 15.0886 43.1477 15.7857 42.2506 16.2804C41.3685 16.7601 40.3444 17 39.1782 17Z" fill="#51B27F"/>
<path d="M57.7976 10.9061C57.7976 11.101 57.7826 11.3783 57.7527 11.7381H48.356C48.5205 12.6226 48.9466 13.3272 49.6343 13.8519C50.337 14.3616 51.2042 14.6164 52.2358 14.6164C53.5515 14.6164 54.6355 14.1817 55.4877 13.3122L56.9902 15.0437C56.452 15.6883 55.7717 16.1755 54.9494 16.5053C54.1271 16.8351 53.2002 17 52.1685 17C50.8529 17 49.6942 16.7377 48.6924 16.213C47.6907 15.6883 46.9133 14.9612 46.3601 14.0317C45.8218 13.0873 45.5527 12.0229 45.5527 10.8386C45.5527 9.66931 45.8144 8.61993 46.3377 7.69048C46.8759 6.74603 47.616 6.01146 48.5579 5.48677C49.4998 4.96208 50.5613 4.69973 51.7424 4.69973C52.9086 4.69973 53.9477 4.96208 54.8597 5.48677C55.7867 5.99647 56.5043 6.72355 57.0127 7.66799C57.5359 8.59744 57.7976 9.67681 57.7976 10.9061ZM51.7424 6.94841C50.8454 6.94841 50.0829 7.21825 49.4549 7.75794C48.8419 8.28263 48.4682 8.98721 48.3336 9.87169H55.1288C55.0092 9.0022 54.6429 8.29762 54.0299 7.75794C53.4169 7.21825 52.6545 6.94841 51.7424 6.94841Z" fill="#51B27F"/>
<path d="M60.4903 0.157407H63.2937V16.8426H60.4903V0.157407Z" fill="#51B27F"/>
<path d="M66.973 0.157407H69.7763V16.8426H66.973V0.157407Z" fill="#51B27F"/>
<path d="M84.7137 10.9061C84.7137 11.101 84.6988 11.3783 84.6689 11.7381H75.2722C75.4367 12.6226 75.8628 13.3272 76.5505 13.8519C77.2532 14.3616 78.1204 14.6164 79.152 14.6164C80.4677 14.6164 81.5516 14.1817 82.4038 13.3122L83.9064 15.0437C83.3682 15.6883 82.6879 16.1755 81.8656 16.5053C81.0433 16.8351 80.1163 17 79.0847 17C77.769 17 76.6103 16.7377 75.6086 16.213C74.6069 15.6883 73.8294 14.9612 73.2762 14.0317C72.738 13.0873 72.4689 12.0229 72.4689 10.8386C72.4689 9.66931 72.7305 8.61993 73.2538 7.69048C73.792 6.74603 74.5321 6.01146 75.474 5.48677C76.4159 4.96208 77.4775 4.69973 78.6586 4.69973C79.8248 4.69973 80.8639 4.96208 81.7759 5.48677C82.7028 5.99647 83.4205 6.72355 83.9288 7.66799C84.4521 8.59744 84.7137 9.67681 84.7137 10.9061ZM78.6586 6.94841C77.7615 6.94841 76.999 7.21825 76.3711 7.75794C75.7581 8.28263 75.3843 8.98721 75.2498 9.87169H82.045C81.9254 9.0022 81.5591 8.29762 80.9461 7.75794C80.3331 7.21825 79.5706 6.94841 78.6586 6.94841Z" fill="#51B27F"/>
<path d="M94.2017 4.69973C95.7118 4.69973 96.9228 5.14197 97.8348 6.02645C98.7468 6.91093 99.2028 8.22266 99.2028 9.96164V16.8426H96.3995V10.3214C96.3995 9.27205 96.1528 8.48501 95.6594 7.96032C95.1661 7.42063 94.4634 7.15079 93.5513 7.15079C92.5197 7.15079 91.7049 7.46561 91.1069 8.09524C90.5088 8.70988 90.2098 9.60185 90.2098 10.7712V16.8426H87.4065V4.83466H90.0752V6.38624C90.5387 5.83157 91.1218 5.41182 91.8245 5.12698C92.5272 4.84215 93.3196 4.69973 94.2017 4.69973Z" fill="#51B27F"/>
<path d="M109.958 16.1905C109.629 16.4603 109.225 16.6627 108.747 16.7976C108.283 16.9325 107.79 17 107.267 17C105.951 17 104.934 16.6552 104.217 15.9656C103.499 15.276 103.14 14.2716 103.14 12.9524V7.17328H101.167V4.9246H103.14V2.18122H105.944V4.9246H109.151V7.17328H105.944V12.8849C105.944 13.4696 106.086 13.9193 106.37 14.2341C106.654 14.5339 107.065 14.6839 107.603 14.6839C108.231 14.6839 108.754 14.519 109.173 14.1892L109.958 16.1905Z" fill="#51B27F"/>
<path d="M113.183 0C113.707 0 114.14 0.172399 114.484 0.517196C114.828 0.861993 115 1.30423 115 1.84391C115 2.11376 114.963 2.3761 114.888 2.63095C114.828 2.8858 114.701 3.26808 114.507 3.77778L113.34 6.9709H111.524L112.421 3.50794C112.092 3.38801 111.83 3.18563 111.636 2.90079C111.457 2.60097 111.367 2.24868 111.367 1.84391C111.367 1.30423 111.539 0.861993 111.883 0.517196C112.227 0.172399 112.66 0 113.183 0Z" fill="#51B27F"/>
</svg>
