<svg width="60" height="12" viewBox="0 0 60 12" fill="none" xmlns="http://www.w3.org/2000/svg">
<path d="M16.0099 3L22.047 3L22.047 4.0694L19.67 4.0694L19.67 10.0978L18.3671 10.0978L18.3671 4.0694L16 4.0694L16.0099 3ZM21.7884 4.95899L22.9024 4.95899L22.9024 5.95268L22.9222 5.95268C22.962 5.81072 23.0316 5.67823 23.1311 5.54574C23.2306 5.41325 23.3499 5.29022 23.4991 5.18612C23.6383 5.07255 23.7975 4.98738 23.9765 4.92113C24.1456 4.85489 24.3246 4.81703 24.5036 4.81703C24.6429 4.81703 24.7423 4.8265 24.792 4.8265C24.8418 4.83596 24.9014 4.84543 24.9512 4.84543L24.9512 5.93375C24.8716 5.91483 24.7821 5.90536 24.6926 5.8959C24.6031 5.88643 24.5235 5.87697 24.434 5.87697C24.2351 5.87697 24.0461 5.91482 23.8671 5.99053C23.6881 6.06624 23.5389 6.17981 23.3996 6.32176C23.2703 6.47318 23.1609 6.653 23.0814 6.87066C23.0018 7.08833 22.962 7.34385 22.962 7.62776L22.962 10.0694L21.7685 10.0694L21.7884 4.95899ZM30.4213 10.0978L29.2477 10.0978L29.2477 9.37855L29.2278 9.37855C29.0787 9.64353 28.8599 9.84227 28.5714 10.0032C28.283 10.164 27.9846 10.2397 27.6863 10.2397C26.9801 10.2397 26.4629 10.0789 26.1447 9.73817C25.8264 9.40694 25.6673 8.8959 25.6673 8.22397L25.6673 4.95899L26.8608 4.95899L26.8608 8.11041C26.8608 8.56467 26.9503 8.88643 27.1392 9.06624C27.3183 9.25552 27.5769 9.35016 27.9051 9.35016C28.1537 9.35016 28.3626 9.3123 28.5316 9.23659C28.7007 9.16088 28.84 9.06624 28.9394 8.94322C29.0488 8.82019 29.1184 8.66877 29.1682 8.49842C29.2179 8.32807 29.2378 8.1388 29.2378 7.94006L29.2378 4.95899L30.4313 4.95899L30.4313 10.0978L30.4213 10.0978ZM32.4503 8.4511C32.4901 8.78233 32.6193 9.00946 32.8481 9.15142C33.0769 9.28391 33.3553 9.35016 33.6736 9.35016C33.783 9.35016 33.9123 9.34069 34.0515 9.32177C34.1908 9.30284 34.33 9.27445 34.4494 9.22713C34.5787 9.17981 34.6781 9.11356 34.7577 9.01893C34.8373 8.92429 34.877 8.81073 34.8671 8.66877C34.8571 8.52681 34.8074 8.40378 34.698 8.30915C34.5886 8.21451 34.4593 8.14826 34.3002 8.08202C34.141 8.02524 33.9521 7.97792 33.7432 7.94006C33.5344 7.90221 33.3255 7.85489 33.1067 7.80757C32.8879 7.76025 32.6691 7.70347 32.4602 7.63722C32.2514 7.57098 32.0723 7.4858 31.9033 7.36277C31.7441 7.24921 31.6049 7.10726 31.5154 6.92745C31.4159 6.74763 31.3662 6.53943 31.3662 6.27445C31.3662 5.99053 31.4358 5.76341 31.585 5.57413C31.7242 5.38486 31.9132 5.23344 32.132 5.11987C32.3508 5.00631 32.5995 4.92114 32.868 4.87382C33.1365 4.8265 33.3951 4.80757 33.6338 4.80757C33.9123 4.80757 34.1808 4.83596 34.4295 4.89275C34.6781 4.94953 34.9168 5.0347 35.1157 5.16719C35.3246 5.29022 35.4937 5.46057 35.623 5.65931C35.7622 5.85804 35.8418 6.1041 35.8816 6.38801L34.6383 6.38801C34.5787 6.11356 34.4494 5.93375 34.2505 5.83912C34.0416 5.74448 33.8128 5.69716 33.5443 5.69716C33.4647 5.69716 33.3553 5.70662 33.2459 5.71609C33.1266 5.73501 33.0271 5.75394 32.9177 5.7918C32.8183 5.82965 32.7288 5.88643 32.6591 5.95268C32.5895 6.01893 32.5497 6.11356 32.5497 6.22713C32.5497 6.36908 32.5995 6.47318 32.6989 6.55836C32.7984 6.64353 32.9277 6.70978 33.0967 6.77603C33.2559 6.83281 33.4448 6.88013 33.6537 6.91798C33.8626 6.95584 34.0814 7.00315 34.3002 7.05047C34.519 7.09779 34.7278 7.15457 34.9367 7.22082C35.1456 7.28706 35.3345 7.37224 35.4937 7.49527C35.6528 7.60883 35.792 7.75079 35.8915 7.92114C35.991 8.09148 36.0407 8.30915 36.0407 8.5552C36.0407 8.85804 35.9711 9.11356 35.8219 9.33123C35.6727 9.53943 35.4837 9.71924 35.255 9.85173C35.0262 9.98423 34.7577 10.0789 34.4792 10.1451C34.1908 10.2019 33.9123 10.2397 33.6338 10.2397C33.2957 10.2397 32.9774 10.2019 32.689 10.1262C32.4005 10.0505 32.142 9.93691 31.9331 9.79495C31.7242 9.64353 31.5552 9.46372 31.4358 9.23659C31.3165 9.01893 31.2468 8.75394 31.2369 8.44164L32.4403 8.44164L32.4403 8.4511L32.4503 8.4511ZM36.3788 4.95899L37.2839 4.95899L37.2839 3.40694L38.4774 3.40694L38.4774 4.94953L39.5515 4.94953L39.5515 5.7918L38.4774 5.7918L38.4774 8.53628C38.4774 8.65931 38.4873 8.75394 38.4973 8.84858C38.5072 8.93375 38.5371 9.00946 38.5669 9.06624C38.6067 9.12303 38.6664 9.17035 38.736 9.19874C38.8156 9.22713 38.915 9.24606 39.0542 9.24606C39.1338 9.24606 39.2233 9.24606 39.3029 9.23659C39.3825 9.22713 39.472 9.21767 39.5515 9.19874L39.5515 10.0789C39.4222 10.0978 39.2929 10.1073 39.1637 10.1167C39.0344 10.1356 38.915 10.1356 38.7758 10.1356C38.4575 10.1356 38.2089 10.1073 38.0199 10.0505C37.8309 9.99369 37.6817 9.90852 37.5723 9.80442C37.4629 9.69085 37.3933 9.55836 37.3535 9.39747C37.3137 9.23659 37.2939 9.03785 37.2839 8.82965L37.2839 5.80126L36.3788 5.80126L36.3788 4.94006L36.3788 4.95899ZM40.387 4.95899L41.5108 4.95899L41.5108 5.65931L41.5307 5.65931C41.6998 5.35647 41.9286 5.14827 42.2269 5.01577C42.5253 4.88328 42.8436 4.81703 43.2016 4.81703C43.6293 4.81703 43.9973 4.88328 44.3155 5.0347C44.6338 5.17666 44.8924 5.36593 45.1013 5.62145C45.3101 5.86751 45.4693 6.16088 45.5687 6.49211C45.6682 6.82335 45.7278 7.18296 45.7278 7.55205C45.7278 7.90221 45.6781 8.23344 45.5886 8.55521C45.4892 8.87697 45.3499 9.17035 45.1609 9.4164C44.972 9.66246 44.7333 9.8612 44.4349 10.0126C44.1365 10.164 43.7984 10.2397 43.4005 10.2397C43.2315 10.2397 43.0524 10.2208 42.8834 10.1924C42.7143 10.164 42.5452 10.1167 42.3861 10.0505C42.2269 9.98423 42.0778 9.89905 41.9485 9.79495C41.8092 9.69085 41.6998 9.56782 41.6103 9.43533L41.5904 9.43533L41.5904 12L40.3969 12L40.3969 4.95899L40.387 4.95899ZM44.5543 7.53312C44.5543 7.30599 44.5244 7.07886 44.4548 6.8612C44.3951 6.64353 44.2957 6.45426 44.1664 6.28391C44.0371 6.11356 43.8779 5.98107 43.6989 5.87697C43.5099 5.77287 43.2911 5.72555 43.0524 5.72555C42.5552 5.72555 42.1772 5.88644 41.9186 6.21767C41.67 6.5489 41.5407 6.99369 41.5407 7.54259C41.5407 7.80757 41.5705 8.04416 41.6401 8.26183C41.7098 8.47949 41.7993 8.66877 41.9385 8.82965C42.0678 8.99054 42.2269 9.11356 42.4159 9.2082C42.6049 9.30284 42.8137 9.35016 43.0624 9.35016C43.3409 9.35016 43.5597 9.29338 43.7486 9.18928C43.9376 9.08517 44.0868 8.94322 44.2161 8.78233C44.3354 8.61199 44.425 8.42271 44.4747 8.20505C44.5244 7.97792 44.5543 7.76025 44.5543 7.53312ZM46.6528 3L47.8463 3L47.8463 4.0694L46.6528 4.0694L46.6528 3ZM46.6528 4.95899L47.8463 4.95899L47.8463 10.0978L46.6528 10.0978L46.6528 4.95899ZM48.9105 3L50.104 3L50.104 10.0978L48.9105 10.0978L48.9105 3ZM53.7441 10.2397C53.3165 10.2397 52.9286 10.1735 52.5904 10.0315C52.2523 9.88959 51.9738 9.70978 51.7351 9.47319C51.5063 9.23659 51.3273 8.94322 51.208 8.61199C51.0886 8.28076 51.019 7.91167 51.019 7.52366C51.019 7.13565 51.0787 6.77603 51.208 6.4448C51.3273 6.11357 51.5063 5.82965 51.7351 5.5836C51.9638 5.347 52.2523 5.15773 52.5904 5.02524C52.9286 4.89275 53.3165 4.81704 53.7441 4.81704C54.1718 4.81704 54.5597 4.88328 54.8978 5.02524C55.236 5.15773 55.5145 5.34701 55.7532 5.5836C55.9819 5.82019 56.1609 6.11357 56.2803 6.4448C56.3996 6.77603 56.4693 7.13565 56.4693 7.52366C56.4693 7.92114 56.4096 8.28076 56.2803 8.61199C56.151 8.94322 55.9819 9.22713 55.7532 9.47319C55.5244 9.70978 55.236 9.89905 54.8978 10.0315C54.5597 10.164 54.1817 10.2397 53.7441 10.2397ZM53.7441 9.3407C54.0027 9.3407 54.2414 9.28391 54.4304 9.17981C54.6293 9.07571 54.7785 8.93376 54.9078 8.76341C55.0371 8.59306 55.1266 8.39432 55.1863 8.18612C55.2459 7.96846 55.2758 7.75079 55.2758 7.52366C55.2758 7.306 55.2459 7.08833 55.1863 6.87066C55.1266 6.653 55.0371 6.46372 54.9078 6.29338C54.7785 6.12303 54.6194 5.99054 54.4304 5.88644C54.2315 5.78234 54.0027 5.72555 53.7441 5.72555C53.4855 5.72555 53.2468 5.78234 53.0579 5.88644C52.859 5.99054 52.7098 6.13249 52.5805 6.29338C52.4512 6.46372 52.3617 6.653 52.302 6.87066C52.2423 7.08833 52.2125 7.30599 52.2125 7.52366C52.2125 7.75079 52.2423 7.96846 52.302 8.18612C52.3617 8.40379 52.4512 8.59306 52.5805 8.76341C52.7098 8.93376 52.8689 9.07571 53.0579 9.17981C53.2568 9.29338 53.4855 9.3407 53.7441 9.3407ZM56.8273 4.95899L57.7324 4.95899L57.7324 3.40694L58.9259 3.40694L58.9259 4.94953L60 4.94953L60 5.7918L58.9259 5.7918L58.9259 8.53628C58.9259 8.65931 58.9358 8.75394 58.9458 8.84858C58.9557 8.93376 58.9855 9.00946 59.0154 9.06625C59.0552 9.12303 59.1148 9.17035 59.1844 9.19874C59.264 9.22713 59.3635 9.24606 59.5027 9.24606C59.5823 9.24606 59.6718 9.24606 59.7514 9.2366C59.8309 9.22713 59.9204 9.21767 60 9.19874L60 10.0789C59.8707 10.0978 59.7414 10.1073 59.6121 10.1167C59.4828 10.1356 59.3635 10.1356 59.2242 10.1356C58.906 10.1356 58.6573 10.1073 58.4684 10.0505C58.2794 9.99369 58.1302 9.90852 58.0208 9.80442C57.9114 9.69085 57.8418 9.55836 57.802 9.39748C57.7622 9.23659 57.7423 9.03785 57.7324 8.82965L57.7324 5.80126L56.8273 5.80126L56.8273 4.94007L56.8273 4.95899Z" fill="black"/>
<path d="M13 4.20352L8.0334 4.20351L6.50452 5.68644e-07L4.9666 4.20351L-3.66779e-07 4.19546L4.0167 6.79648L2.47877 11L6.49548 8.39897L10.5122 11L8.9833 6.79648L13 4.20352Z" fill="#00B67A"/>
</svg>
