<svg width="16" height="16" viewBox="0 0 16 16" fill="none" xmlns="http://www.w3.org/2000/svg">
<path d="M13.763 6.341C13.6394 5.90755 13.467 5.48953 13.249 5.095L14.243 3.004C13.8741 2.54408 13.4559 2.12592 12.996 1.757L10.905 2.751C10.5103 2.5333 10.0924 2.36087 9.659 2.237L8.881 0.051C8.592 0.019 8.298 0 8 0C7.702 0 7.408 0.019 7.119 0.051L6.341 2.237C5.904 2.363 5.486 2.535 5.096 2.751L3.004 1.757C2.54408 2.12592 2.12592 2.54408 1.757 3.004L2.751 5.095C2.5333 5.48965 2.36087 5.90764 2.237 6.341L0.051 7.119C0.019 7.408 0 7.702 0 8C0 8.298 0.019 8.592 0.051 8.881L2.238 9.659C2.364 10.097 2.535 10.514 2.752 10.905L1.758 12.996C2.127 13.456 2.545 13.875 3.005 14.243L5.096 13.249C5.486 13.465 5.904 13.637 6.342 13.763L7.12 15.95C7.408 15.981 7.702 16 8 16C8.298 16 8.592 15.981 8.881 15.949L9.659 13.762C10.097 13.636 10.514 13.465 10.905 13.248L12.996 14.242C13.4562 13.8733 13.8743 13.4552 14.243 12.995L13.249 10.904C13.4667 10.5093 13.6391 10.0914 13.763 9.658L15.95 8.88C15.981 8.592 16 8.298 16 8C16 7.702 15.981 7.408 15.949 7.119L13.763 6.341ZM8 12C6.93913 12 5.92172 11.5786 5.17157 10.8284C4.42143 10.0783 4 9.06087 4 8C4 6.93913 4.42143 5.92172 5.17157 5.17157C5.92172 4.42143 6.93913 4 8 4C9.06087 4 10.0783 4.42143 10.8284 5.17157C11.5786 5.92172 12 6.93913 12 8C12 9.06087 11.5786 10.0783 10.8284 10.8284C10.0783 11.5786 9.06087 12 8 12ZM6 8C6 8.53043 6.21071 9.03914 6.58579 9.41421C6.96086 9.78929 7.46957 10 8 10C8.53043 10 9.03914 9.78929 9.41421 9.41421C9.78929 9.03914 10 8.53043 10 8C10 7.46957 9.78929 6.96086 9.41421 6.58579C9.03914 6.21071 8.53043 6 8 6C7.46957 6 6.96086 6.21071 6.58579 6.58579C6.21071 6.96086 6 7.46957 6 8Z" fill="white"/>
</svg>
