<svg width="7" height="8" viewBox="0 0 7 8" fill="none" xmlns="http://www.w3.org/2000/svg">
<path d="M1.74816 0H6.77439C6.89502 0 6.99292 0.1078 6.99292 0.240625V5.775C6.99292 5.90782 6.89502 6.01562 6.77439 6.01562H6.11879V5.53437H6.55586V0.48125H1.9667V0.9625H1.52963V0.240625C1.52963 0.1078 1.62754 0 1.74816 0Z" fill="#388CC4"/>
<path d="M0.218476 1.44376H5.46323C5.58386 1.44376 5.68176 1.55156 5.68176 1.68438V7.45938C5.68176 7.59221 5.58386 7.70001 5.46323 7.70001H0.218476C0.097847 7.70001 -5.53131e-05 7.59221 -5.53131e-05 7.45938V1.68438C-5.53131e-05 1.55156 0.097847 1.44376 0.218476 1.44376ZM0.437008 7.21876H5.2447V1.92501H0.437008V7.21876Z" fill="#388CC4"/>
</svg>
