<svg width="18" height="18" viewBox="0 0 18 18" fill="none" xmlns="http://www.w3.org/2000/svg">
<path d="M12.7623 2.00013C12.9649 1.99663 13.1568 2.06627 13.3001 2.19962C13.4441 2.32877 13.5211 2.50762 13.5211 2.69661C13.5211 3.08161 13.8563 3.39345 14.2728 3.39345C14.4014 3.39345 14.5303 3.3581 14.6449 3.2986C15.0018 3.11626 15.4475 3.2321 15.6501 3.5576L15.9009 3.96709C15.9635 4.07209 16 4.19109 16 4.31358C16 4.56208 15.8567 4.79343 15.6247 4.91557C15.5101 4.97507 15.4143 5.06607 15.3484 5.17142C15.1528 5.50006 15.2747 5.91621 15.6247 6.1059C15.9779 6.29805 16.0995 6.71839 15.9009 7.05053L15.6501 7.44638C15.5175 7.66302 15.2707 7.79637 15.0055 7.79637C14.8729 7.79637 14.7403 7.76452 14.6301 7.70152C14.5119 7.64202 14.3834 7.60702 14.2541 7.60702C14.0552 7.60702 13.8636 7.68087 13.724 7.81352C13.58 7.94337 13.5026 8.12152 13.5026 8.30701C13.5026 8.68851 13.1678 9 12.7512 9H12.247C12.0477 9 11.8598 8.923 11.7236 8.7935C11.5836 8.66051 11.5103 8.48551 11.5103 8.30351C11.5103 7.91852 11.1784 7.60702 10.7626 7.60702C10.6259 7.60702 10.4933 7.64202 10.3791 7.70887C10.206 7.79952 9.99972 7.82402 9.80819 7.77852C9.61665 7.72952 9.4509 7.61053 9.35144 7.45303L9.11607 7.05753C9.0052 6.89339 8.97205 6.69704 9.02399 6.51154C9.07519 6.32605 9.20816 6.16855 9.38828 6.07405C9.50283 6.01455 9.59823 5.92706 9.66453 5.81856C9.85644 5.48956 9.73452 5.07657 9.38828 4.88407C9.03835 4.69508 8.9168 4.27858 9.11607 3.94959L9.35144 3.5576C9.4509 3.39345 9.61665 3.2741 9.81187 3.2251C10.0075 3.1761 10.2134 3.20375 10.3865 3.2986C10.5044 3.3581 10.6333 3.3896 10.7626 3.3896C10.9615 3.3896 11.1526 3.3161 11.2926 3.1866C11.4326 3.05711 11.5103 2.87861 11.5103 2.69661C11.5103 2.31162 11.8451 2.00013 12.2613 2.00013H12.7623ZM12.91 4.61843C12.5232 4.46758 12.0772 4.54808 11.7788 4.82457C11.4841 5.09757 11.3921 5.51406 11.5541 5.87141C11.7129 6.23155 12.0882 6.46605 12.5081 6.46605H12.5122C12.7884 6.46955 13.0463 6.3684 13.2411 6.18605C13.4363 6.00755 13.5468 5.76256 13.5468 5.50706C13.5505 5.11857 13.2964 4.76508 12.91 4.61843Z" fill="white"/>
<path d="M6 4C4.66383 4 3.58065 5.12071 3.58065 6.50318C3.58065 7.88565 4.66383 9.00636 6 9.00636C7.33619 9.00636 8.41935 7.88565 8.41935 6.50318C8.41935 5.12071 7.33619 4 6 4ZM3.41935 10.3414C2.08318 10.3414 1 11.4621 1 12.8446V13.6378C1 14.1405 1.35218 14.5692 1.83179 14.6503C4.59232 15.1166 7.40768 15.1166 10.1682 14.6503C10.6478 14.5692 11 14.1405 11 13.6378V12.8446C11 11.4621 9.91684 10.3414 8.58065 10.3414H8.36071C8.24168 10.3414 8.12342 10.3609 8.01026 10.3991L7.45187 10.5878C6.50845 10.9064 5.49155 10.9064 4.54812 10.5878L3.98972 10.3991C3.87657 10.3609 3.7583 10.3414 3.63927 10.3414H3.41935Z" fill="white"/>
</svg>
