<svg width="20" height="19" viewBox="0 0 20 19" fill="none" xmlns="http://www.w3.org/2000/svg">
<path d="M10.0328 9.76655C9.84931 9.76655 9.67332 9.69365 9.54356 9.56389C9.41379 9.43413 9.34089 9.25813 9.34089 9.07462C9.33371 8.51522 9.52909 7.9721 9.89098 7.54547L10.102 7.34827C10.531 6.96079 11.4167 6.15815 11.4167 5.27249C11.4295 5.08746 11.4025 4.90183 11.3375 4.72813C11.2724 4.55442 11.1709 4.39668 11.0398 4.26553C10.9086 4.13438 10.7509 4.03287 10.5772 3.96786C10.4035 3.90284 10.2179 3.87583 10.0328 3.88863C9.84779 3.87583 9.66216 3.90284 9.48846 3.96786C9.31475 4.03287 9.15701 4.13438 9.02586 4.26553C8.89471 4.39668 8.79321 4.55442 8.72819 4.72813C8.66317 4.90183 8.63616 5.08746 8.64897 5.27249C8.64897 5.456 8.57607 5.63199 8.44631 5.76175C8.31655 5.89151 8.14055 5.96441 7.95704 5.96441C7.77353 5.96441 7.59754 5.89151 7.46777 5.76175C7.33801 5.63199 7.26511 5.456 7.26511 5.27249C7.25257 4.90564 7.31558 4.54014 7.45023 4.19867C7.58488 3.8572 7.7883 3.54706 8.04785 3.28751C8.3074 3.02796 8.61754 2.82455 8.959 2.6899C9.30047 2.55525 9.66598 2.49224 10.0328 2.50478C10.3997 2.49224 10.7652 2.55525 11.1066 2.6899C11.4481 2.82455 11.7582 3.02796 12.0178 3.28751C12.2773 3.54706 12.4808 3.8572 12.6154 4.19867C12.7501 4.54014 12.8131 4.90564 12.8005 5.27249C12.8005 6.77743 11.607 7.85683 11.0327 8.38616L10.8666 8.53838C10.7711 8.70706 10.7221 8.8981 10.7247 9.09192C10.7202 9.27242 10.6453 9.444 10.5161 9.57004C10.3868 9.69609 10.2134 9.76661 10.0328 9.76655ZM10.0328 11.8458C9.94152 11.8459 9.8511 11.8279 9.76679 11.7928C9.68247 11.7578 9.60592 11.7064 9.54155 11.6417C9.51002 11.6082 9.48111 11.5723 9.45506 11.5344C9.43023 11.4975 9.40936 11.4581 9.39279 11.4168C9.37492 11.3758 9.36214 11.3329 9.35473 11.2888C9.34962 11.244 9.34962 11.1987 9.35473 11.1539C9.35421 11.0628 9.37166 10.9725 9.40609 10.8882C9.44053 10.8039 9.49126 10.7273 9.55539 10.6626L9.66264 10.5761C9.69996 10.552 9.73932 10.5311 9.78027 10.5138C9.82286 10.4964 9.86684 10.4825 9.91173 10.4723C10.0232 10.4505 10.1383 10.4564 10.2469 10.4896C10.3555 10.5228 10.4543 10.5822 10.5345 10.6626C10.5988 10.7269 10.6498 10.8032 10.6847 10.8872C10.7195 10.9712 10.7374 11.0612 10.7374 11.1521C10.7374 11.2431 10.7195 11.3331 10.6847 11.4171C10.6498 11.5011 10.5988 11.5774 10.5345 11.6417C10.4689 11.7077 10.3906 11.7598 10.3044 11.7949C10.2182 11.8299 10.1259 11.8472 10.0328 11.8458Z" fill="#FFA23C"/>
<path d="M8.11275 14.3609C6.78227 14.3662 5.4548 14.2341 4.15147 13.9665C4.05756 13.9538 3.96726 13.9219 3.88618 13.8729C3.8051 13.8238 3.73496 13.7586 3.68012 13.6813C3.62527 13.604 3.58689 13.5163 3.56735 13.4235C3.54782 13.3308 3.54754 13.235 3.56653 13.1422C3.58553 13.0493 3.6234 12.9614 3.67779 12.8838C3.73218 12.8062 3.80194 12.7406 3.88273 12.691C3.96353 12.6415 4.05364 12.6091 4.14747 12.5958C4.24131 12.5825 4.33688 12.5886 4.42824 12.6138C5.86511 12.9085 7.33188 13.0316 8.79776 12.9805H9.17486H13.7762C14.4122 12.9805 15.0421 12.8553 15.6297 12.6119C16.2173 12.3685 16.7513 12.0117 17.201 11.5619C17.6508 11.1122 18.0076 10.5782 18.251 9.99058C18.4944 9.40294 18.6197 8.77312 18.6197 8.13706V6.22734C18.6186 5.80309 18.5616 5.38083 18.4501 4.9715C18.4189 4.88125 18.4068 4.78553 18.4144 4.69034C18.422 4.59516 18.4492 4.50259 18.4943 4.41844C18.5395 4.33429 18.6015 4.2604 18.6766 4.2014C18.7517 4.14241 18.8381 4.09959 18.9306 4.07564C19.023 4.05169 19.1194 4.04714 19.2137 4.06226C19.308 4.07738 19.3981 4.11185 19.4784 4.1635C19.5587 4.21515 19.6275 4.28287 19.6803 4.36238C19.7332 4.4419 19.769 4.53149 19.7856 4.62553C19.9278 5.15348 19.9999 5.69786 20.0001 6.24464V8.1336C20.0001 9.78519 19.344 11.3691 18.1761 12.537C17.0083 13.7048 15.4243 14.3609 13.7727 14.3609H9.1714H8.82544C8.62824 14.354 8.38953 14.3609 8.11275 14.3609Z" fill="#FFA23C"/>
<path d="M1.53248 14.8176C1.38187 14.8172 1.23552 14.7676 1.11564 14.6765C0.995755 14.5853 0.908889 14.4575 0.868226 14.3125C0.470916 12.8255 0.203519 11.3068 0.0690507 9.77347C-0.0230169 8.58398 -0.0230169 7.38916 0.0690507 6.19967C0.0763698 4.55288 0.735692 2.97603 1.90275 1.81415C3.06981 0.652281 4.64958 -1.09216e-05 6.29639 5.34325e-06H13.7727C14.6502 -0.00114416 15.5181 0.183189 16.3194 0.54092C17.1207 0.898651 17.8374 1.4217 18.4224 2.07579C18.5444 2.21342 18.6068 2.39389 18.5958 2.5775C18.5847 2.76112 18.5012 2.93283 18.3636 3.05486C18.226 3.1769 18.0455 3.23926 17.8619 3.22823C17.6783 3.2172 17.5066 3.13368 17.3845 2.99605C16.9303 2.48493 16.373 2.07578 15.7493 1.79552C15.1255 1.51526 14.4495 1.37025 13.7657 1.37002H6.29293C5.00836 1.37002 3.7764 1.88031 2.86807 2.78864C1.95974 3.69697 1.44944 4.92894 1.44944 6.21351C1.45116 6.23423 1.45116 6.25506 1.44944 6.27578C1.36593 7.39399 1.36593 8.51687 1.44944 9.63509C1.57815 11.0839 1.83047 12.5191 2.20364 13.925C2.23252 14.028 2.23713 14.1362 2.21713 14.2413C2.19712 14.3463 2.15304 14.4453 2.08834 14.5305C2.02365 14.6156 1.9401 14.6846 1.84425 14.732C1.7484 14.7794 1.64287 14.804 1.53594 14.8038L1.53248 14.8176Z" fill="#FFA23C"/>
<path d="M3.25885 18.2461H3.1862C3.09577 18.2366 3.0081 18.2094 2.9282 18.166C2.8483 18.1226 2.77774 18.0639 2.72054 17.9932C2.66335 17.9225 2.62065 17.8412 2.59489 17.754C2.56912 17.6668 2.5608 17.5754 2.57039 17.485C2.74405 15.9562 3.10662 14.4548 3.64979 13.0152C3.68123 12.9263 3.7305 12.8447 3.79458 12.7756C3.85866 12.7064 3.93621 12.6511 4.02244 12.613C4.10868 12.5749 4.2018 12.5548 4.29608 12.554C4.39036 12.5531 4.48382 12.5716 4.57071 12.6082C4.6576 12.6448 4.7361 12.6988 4.80138 12.7668C4.86666 12.8348 4.91735 12.9155 4.95033 13.0038C4.98332 13.0921 4.9979 13.1863 4.99319 13.2804C4.98848 13.3746 4.96457 13.4668 4.92294 13.5514C4.43531 14.8682 4.10775 16.2388 3.94732 17.6338C3.92778 17.8026 3.84681 17.9583 3.71984 18.0712C3.59287 18.1841 3.42878 18.2464 3.25885 18.2461Z" fill="#FFA23C"/>
</svg>
