<svg width="14" height="15" viewBox="0 0 14 15" fill="none" xmlns="http://www.w3.org/2000/svg">
<path fill-rule="evenodd" clip-rule="evenodd" d="M3.33211 8.33026H8.66347C8.84022 8.33026 9.00973 8.26005 9.1347 8.13507C9.25968 8.0101 9.3299 7.84059 9.3299 7.66384C9.3299 7.4871 9.25968 7.31759 9.1347 7.19261C9.00973 7.06763 8.84022 6.99742 8.66347 6.99742H3.33211C3.15536 6.99742 2.98585 7.06763 2.86087 7.19261C2.7359 7.31759 2.66568 7.4871 2.66568 7.66384C2.66568 7.84059 2.7359 8.0101 2.86087 8.13507C2.98585 8.26005 3.15536 8.33026 3.33211 8.33026ZM2.86087 9.8583C2.98585 9.73332 3.15536 9.66311 3.33211 9.66311H5.99779C6.17454 9.66311 6.34404 9.73332 6.46902 9.8583C6.594 9.98328 6.66421 10.1528 6.66421 10.3295C6.66421 10.5063 6.594 10.6758 6.46902 10.8008C6.34404 10.9257 6.17454 10.9959 5.99779 10.9959H3.33211C3.15536 10.9959 2.98585 10.9257 2.86087 10.8008C2.7359 10.6758 2.66568 10.5063 2.66568 10.3295C2.66568 10.1528 2.7359 9.98328 2.86087 9.8583ZM10.8579 8.19224C10.9829 8.06727 11.1524 7.99705 11.3292 7.99705C11.5059 7.99705 11.6754 8.06727 11.8004 8.19224C11.9254 8.31722 11.9956 8.48673 11.9956 8.66348V13.9948C11.9956 14.1716 11.9254 14.3411 11.8004 14.4661C11.6754 14.5911 11.5059 14.6613 11.3292 14.6613H0.666421C0.489675 14.6613 0.320168 14.5911 0.19519 14.4661C0.070212 14.3411 0 14.1716 0 13.9948V1.33284C0 1.1561 0.070212 0.986589 0.19519 0.861611C0.320168 0.736633 0.489675 0.666421 0.666421 0.666421H4.66495C4.84169 0.666421 5.0112 0.736633 5.13618 0.861611C5.26116 0.986589 5.33137 1.1561 5.33137 1.33284C5.33137 1.50959 5.26116 1.6791 5.13618 1.80407C5.0112 1.92905 4.84169 1.99926 4.66495 1.99926H1.33284V13.3284H10.6627V8.66348C10.6627 8.48673 10.7329 8.31722 10.8579 8.19224ZM13.5832 7.94868C13.6635 7.91337 13.7356 7.86176 13.7949 7.79713C13.8596 7.73782 13.9112 7.66573 13.9465 7.58542C13.9818 7.50512 14 7.41835 14 7.33063C14 7.24291 13.9818 7.15615 13.9465 7.07584C13.9112 6.99554 13.8596 6.92344 13.7949 6.86414L12.0955 5.16476H12.1289C12.4746 4.61582 12.6593 3.98085 12.662 3.33211C12.662 2.44838 12.3109 1.60084 11.686 0.975951C11.0612 0.35106 10.2136 0 9.3299 0C8.44617 0 7.59863 0.35106 6.97374 0.975951C6.34885 1.60084 5.99779 2.44838 5.99779 3.33211C6.0015 3.67191 6.0577 4.0091 6.16439 4.33174H3.33211C3.15536 4.33174 2.98585 4.40195 2.86087 4.52693C2.7359 4.65191 2.66568 4.82141 2.66568 4.99816C2.66568 5.1749 2.7359 5.34441 2.86087 5.46939C2.98585 5.59437 3.15536 5.66458 3.33211 5.66458H6.9641C7.58955 6.29743 8.44016 6.65684 9.3299 6.66421C9.98191 6.65159 10.6171 6.45525 11.1626 6.09775L12.8619 7.79713C12.9212 7.86176 12.9933 7.91337 13.0736 7.94868C13.1539 7.98398 13.2407 8.00221 13.3284 8.00221C13.4161 8.00221 13.5029 7.98398 13.5832 7.94868ZM9.31657 5.47131C10.4649 5.47131 11.3958 4.54041 11.3958 3.39208C11.3958 2.24375 10.4649 1.31285 9.31657 1.31285C8.16824 1.31285 7.23734 2.24375 7.23734 3.39208C7.23734 4.54041 8.16824 5.47131 9.31657 5.47131Z" fill="#FF8E12"/>
</svg>
