<svg width="18" height="19" viewBox="0 0 18 19" fill="none" xmlns="http://www.w3.org/2000/svg">
<path d="M17.5829 8.15142L16.9794 7.54775C16.906 7.20825 16.7979 6.87979 16.6898 6.57313L17.0076 5.38829C17.0799 5.11952 17.0431 4.83858 16.9039 4.59733C16.7647 4.35595 16.5398 4.18333 16.2709 4.11135L15.0785 3.79184C14.8571 3.54137 14.6185 3.30278 14.3682 3.08152L14.0487 1.889C13.9005 1.33705 13.3293 1.00621 12.7724 1.15241L11.5869 1.47025C11.2802 1.36206 10.9518 1.25402 10.6124 1.18078L9.73687 0.305259C9.54007 0.108462 9.27842 0 9.00014 0C8.72172 0 8.46007 0.108462 8.26327 0.305259L7.38775 1.18064C7.04838 1.25402 6.72006 1.36192 6.41327 1.47011L5.22773 1.15227L5.22424 1.15143C4.67159 1.00719 4.10104 1.33746 3.95149 1.88914L3.63197 3.08152C3.3815 3.30278 3.14292 3.54151 2.92166 3.79184L1.72942 4.11121C1.46036 4.18319 1.23533 4.35581 1.09612 4.59719C0.957044 4.83858 0.920144 5.11938 0.992406 5.3876L1.31038 6.57313C1.2022 6.87979 1.09416 7.20811 1.02078 7.54775L0.41711 8.15142C-0.139037 8.70757 -0.139037 9.61258 0.41711 10.1687L1.02078 10.7723C1.09416 11.1119 1.20206 11.4402 1.31024 11.7469L0.992546 12.9319C0.920284 13.2006 0.957044 13.4816 1.09626 13.7228C1.23547 13.9642 1.46036 14.1368 1.72928 14.2087L2.92166 14.5282C3.14292 14.7786 3.38164 15.0172 3.63197 15.2385L3.95149 16.431C4.02417 16.7023 4.19818 16.9283 4.44138 17.0672C4.68221 17.2051 4.96189 17.2406 5.22913 17.1673L6.41327 16.8499C6.72006 16.9581 7.04838 17.066 7.38775 17.1394L8.26327 18.0147C8.46007 18.2117 8.72186 18.32 9 18.32C9.27842 18.32 9.54007 18.2115 9.73687 18.0147L10.6155 17.1064C10.9449 17.0404 11.2704 16.954 11.5844 16.8492L12.7706 17.1673C13.0383 17.2408 13.3175 17.2058 13.5581 17.0685C13.8014 16.9296 13.9757 16.7031 14.0487 16.431L14.3682 15.2386C14.6186 15.0172 14.8572 14.7786 15.0785 14.5283L16.2707 14.2088C16.5398 14.1368 16.7648 13.9642 16.904 13.7228C17.0432 13.4816 17.08 13.2006 17.0077 12.9324L16.6898 11.747C16.7979 11.4402 16.906 11.1119 16.9794 10.7724L17.5829 10.1687C18.139 9.61244 18.139 8.70757 17.5829 8.15142V8.15142ZM16.8238 9.40949L16.1878 10.0453C16.0602 10.1729 15.9737 10.3332 15.9375 10.5089C15.8776 10.8003 15.7842 11.0887 15.6623 11.432C15.5995 11.6089 15.592 11.798 15.6405 11.9792L15.9625 13.1798L14.7559 13.5031C14.5789 13.5506 14.421 13.6493 14.299 13.7886C14.0916 14.026 13.866 14.2516 13.6286 14.4591C13.4893 14.581 13.3906 14.7389 13.3431 14.9159L13.0198 16.1224L11.8176 15.8001C11.641 15.7527 11.4549 15.7591 11.2797 15.8188C10.9849 15.919 10.6777 16.0007 10.3661 16.0612C10.178 16.0978 10.0089 16.1892 9.87692 16.3256L8.99972 17.2327L8.11483 16.3478C7.98736 16.2204 7.82705 16.1337 7.65121 16.0975C7.35979 16.0376 7.07159 15.9442 6.72831 15.8223C6.62809 15.7868 6.52397 15.7689 6.4197 15.7689C6.33961 15.7689 6.25952 15.7794 6.18097 15.8005L4.98034 16.1224L4.65705 14.9158C4.60953 14.7389 4.51085 14.581 4.37136 14.459C4.13417 14.2514 3.90858 14.026 3.70102 13.7885C3.57914 13.6493 3.4212 13.5505 3.24425 13.5031L2.03775 13.1797L2.35964 11.9792C2.40814 11.7983 2.40059 11.6091 2.3377 11.4318C2.21596 11.0887 2.12259 10.8003 2.06263 10.5089C2.02643 10.3332 1.93991 10.1729 1.8123 10.0452L1.17634 9.40949C1.03881 9.27182 1.03881 9.04805 1.17634 8.91051L1.8123 8.27456C1.93991 8.14695 2.02643 7.98663 2.06263 7.81108C2.12259 7.51952 2.21596 7.23131 2.33784 6.88803C2.40073 6.71094 2.40828 6.52155 2.35964 6.34069L2.03775 5.1402L3.24425 4.81677C3.4212 4.76939 3.57914 4.67071 3.70116 4.53122C3.90858 4.29389 4.13417 4.06844 4.3715 3.86088C4.51085 3.739 4.60953 3.58106 4.65705 3.40397L4.98034 2.19747L6.18097 2.5195C6.36197 2.568 6.55136 2.56046 6.72831 2.49756C7.07145 2.37582 7.35979 2.28231 7.65135 2.22235C7.82705 2.18615 7.98736 2.09963 8.11483 1.97216L9 1.08686L9.88517 1.97202C10.0128 2.09963 10.1731 2.18629 10.3489 2.22249C10.6403 2.28245 10.9287 2.37596 11.2717 2.4977C11.4488 2.5606 11.6382 2.56814 11.8192 2.51964L13.0198 2.19761L13.3431 3.40425C13.3905 3.5812 13.4893 3.73914 13.6286 3.86102C13.866 4.06844 14.0914 4.29403 14.299 4.53136C14.421 4.67085 14.5789 4.76953 14.7559 4.81691L15.9624 5.14034L15.6404 6.34097C15.592 6.52197 15.5995 6.71108 15.6623 6.88831C15.7842 7.23145 15.8776 7.51966 15.9375 7.81122C15.9737 7.98677 16.0602 8.14709 16.1878 8.27484L16.8237 8.91065C16.9612 9.04805 16.9612 9.27196 16.8238 9.40949V9.40949Z" fill="#FF8E12"/>
<path d="M8.68443 6.01276C8.8341 5.5521 9.48581 5.5521 9.63548 6.01276L9.85836 6.69872C10.0592 7.31675 10.6351 7.73519 11.2849 7.73519H12.0062C12.4906 7.73519 12.692 8.355 12.3001 8.6397L11.7166 9.06365C11.1909 9.44562 10.9709 10.1227 11.1717 10.7407L11.3946 11.4267C11.5442 11.8873 11.017 12.2704 10.6251 11.9857L10.0416 11.5617C9.5159 11.1798 8.80401 11.1798 8.27828 11.5617L7.69476 11.9857C7.3029 12.2704 6.77566 11.8873 6.92534 11.4267L7.14822 10.7407C7.34903 10.1227 7.12905 9.44562 6.60332 9.06365L6.0198 8.6397C5.62794 8.355 5.82933 7.73519 6.31369 7.73519H7.03496C7.6848 7.73519 8.26073 7.31675 8.46154 6.69872L8.68443 6.01276Z" stroke="#FFA23C"/>
</svg>
