<svg width="13" height="18" viewBox="0 0 13 18" fill="none" xmlns="http://www.w3.org/2000/svg">
<path d="M10.0161 4.67428C9.89374 4.47172 9.65122 4.37545 9.42325 4.43903C9.19515 4.50261 9.0375 4.71026 9.0375 4.94701C9.0375 5.59067 8.51386 6.11417 7.87034 6.11417C7.22667 6.11417 6.70318 5.59067 6.70318 4.94701V0.527351C6.70318 0.314079 6.57464 0.121818 6.37757 0.0401073C6.1805 -0.0414662 5.95363 0.00371509 5.80285 0.154502C5.74379 0.213691 4.33741 1.62804 2.91275 3.76516C2.07271 5.02529 1.40227 6.27526 0.920243 7.48032C0.309677 9.00687 0 10.4685 0 11.8242C0 15.2295 2.77048 18 6.17569 18C9.58105 18 12.3515 15.2295 12.3515 11.8242C12.3515 9.64449 11.5657 7.2389 10.0161 4.67428ZM6.17569 16.9453C3.35207 16.9453 1.05469 14.6479 1.05469 11.8242C1.05469 9.04464 2.53606 6.23502 3.77889 4.36735C4.45249 3.35509 5.13131 2.50201 5.64835 1.89529V4.94701C5.64835 6.17212 6.64508 7.16886 7.8702 7.16886C8.61919 7.16886 9.2829 6.79642 9.68555 6.22692C10.7553 8.2414 11.2968 10.1203 11.2968 11.8242C11.2968 14.6479 8.99959 16.9453 6.17569 16.9453Z" fill="#FF8E12"/>
<path d="M9.16718 8.90044H6.90784C6.61657 8.90044 6.3805 9.13651 6.3805 9.42765C6.38036 9.71893 6.61657 9.95513 6.90771 9.95513H7.89414L5.64112 12.208L4.41642 10.9833C4.21056 10.7775 3.87658 10.7775 3.67072 10.9833L2.47238 12.1815C2.26639 12.3875 2.26639 12.7214 2.47225 12.9273C2.67824 13.1333 3.01209 13.1332 3.21808 12.9273L4.04357 12.102L5.26813 13.3267C5.36701 13.4256 5.50118 13.4812 5.64112 13.4812C5.78092 13.4812 5.91509 13.4256 6.01397 13.3267L8.63984 10.701V11.6871C8.63984 11.9783 8.87591 12.2145 9.16718 12.2145C9.45846 12.2145 9.69453 11.9783 9.69453 11.6871V9.42779C9.69453 9.13651 9.45846 8.90044 9.16718 8.90044Z" fill="#FF8E12"/>
</svg>
